# xmcd
#
# Track frame offsets: 
#        150
#        24287
#        51825
#        71592
#        93565
#        107960
#        132755
#        154322
#        171927
#        185697
#        206815
#        226227
#
# Disc length: 3238 seconds
#
# Revision: 3
# Processed by: cddbd v1.5.2PL0 Copyright (c) Steve Scherf et al.
# Submitted via: ExactAudioCopy v1.0b3
#
DISCID=a80ca40c
DTITLE=Roy Gaines - New Frontier Lover
DYEAR=2000
DGENRE=Blues
TTITLE0=New Frontier Lover
TTITLE1=The World's Biggest Fool
TTITLE2=What's The Reason
TTITLE3=You Can't Make Nobody Love You
TTITLE4=Catch That Midnight Train
TTITLE5=W.C. Handy Sang The Blues
TTITLE6=Texas Millonaire
TTITLE7=Double Dealin' Woman
TTITLE8=Roy's Theme
TTITLE9=My Woman, My Blacksnake And Me
TTITLE10=Hind Ends and Elbows
TTITLE11=Roll Your Own Biscuit
EXTD=
EXTT0=
EXTT1=
EXTT2=
EXTT3=
EXTT4=
EXTT5=
EXTT6=
EXTT7=
EXTT8=
EXTT9=
EXTT10=
EXTT11=
PLAYORDER=
